<?xml version="1.0" standalone="no"?>
<!DOCTYPE svg PUBLIC "-//W3C//DTD SVG 20010904//EN"
 "http://www.w3.org/TR/2001/REC-SVG-20010904/DTD/svg10.dtd">
<svg version="1.0" xmlns="http://www.w3.org/2000/svg"
 width="796.000000pt" height="1280.000000pt" viewBox="0 0 796.000000 1280.000000"
 preserveAspectRatio="xMidYMid meet">
<g transform="translate(0.000000,1280.000000) scale(0.100000,-0.100000)"
fill="#000000" stroke="none">
<path d="M3016 12665 c-214 -175 -435 -576 -505 -920 -27 -129 -47 -423 -35
-490 l10 -50 18 55 c45 132 108 225 177 261 48 24 70 24 117 0 71 -36 74 -44
46 -141 -15 -51 -26 -115 -27 -160 -1 -41 -6 -78 -11 -82 -6 -4 -9 -29 -7 -56
2 -39 -2 -55 -22 -78 -13 -16 -27 -37 -30 -47 -16 -42 -183 -236 -218 -252
-24 -11 -42 -29 -53 -54 -26 -58 -53 -104 -79 -136 -24 -29 -25 -29 -65 -16
l-41 14 -57 -49 c-30 -27 -70 -59 -88 -70 -25 -17 -35 -35 -53 -95 -12 -41
-25 -90 -29 -109 -6 -33 -26 -79 -62 -147 -10 -18 -132 -174 -272 -347 -202
-249 -264 -318 -297 -336 -30 -15 -45 -30 -49 -48 -4 -15 -13 -34 -20 -42 -7
-9 -17 -25 -21 -37 -4 -12 -81 -112 -171 -222 -117 -143 -175 -207 -205 -223
-23 -13 -43 -32 -46 -43 -2 -11 -12 -33 -23 -48 -15 -21 -18 -37 -14 -62 6
-30 -3 -48 -87 -177 -103 -157 -132 -207 -123 -216 4 -3 75 63 158 147 118
119 156 151 171 147 40 -10 93 34 131 109 46 91 339 453 387 479 25 14 45 38
70 85 31 59 501 660 551 704 29 25 43 21 65 -15 27 -47 43 -109 55 -213 5 -49
13 -94 18 -100 11 -13 34 -116 55 -250 17 -104 32 -148 63 -193 22 -31 82
-210 82 -243 0 -12 8 -36 19 -53 10 -17 28 -56 41 -87 12 -31 31 -59 43 -65
14 -6 30 -35 49 -87 16 -43 39 -93 52 -110 14 -18 38 -60 55 -93 22 -44 44
-72 78 -97 45 -32 307 -157 331 -157 6 0 19 -10 29 -23 32 -40 65 -57 113 -57
85 0 86 -1 99 -237 14 -247 27 -373 48 -468 17 -78 75 -210 122 -279 17 -24
31 -52 31 -60 0 -9 15 -22 33 -30 17 -7 40 -27 49 -43 17 -29 17 -31 -7 -53
-13 -12 -31 -20 -39 -17 -28 11 -77 90 -72 113 4 16 -1 28 -20 43 -30 24 -48
26 -93 10 -40 -14 -61 -54 -61 -117 0 -58 12 -98 53 -170 25 -45 31 -50 41
-37 11 15 13 15 29 -3 16 -17 16 -21 0 -61 -14 -35 -14 -48 -5 -75 7 -18 12
-58 12 -89 0 -31 5 -80 11 -109 13 -60 -1 -136 -32 -177 -11 -13 -19 -29 -19
-36 0 -20 -61 -40 -107 -37 -53 5 -57 -12 -12 -52 30 -27 31 -30 25 -85 -4
-31 -8 -74 -10 -96 -1 -22 -20 -87 -43 -145 -22 -58 -44 -121 -48 -140 -8 -39
-31 -70 -51 -70 -7 0 -18 -8 -23 -18 -7 -14 -31 -21 -101 -29 -51 -7 -95 -14
-98 -17 -8 -8 47 -83 73 -100 19 -12 23 -24 23 -68 0 -60 -10 -84 -46 -114
-21 -17 -27 -33 -33 -85 -3 -35 -18 -90 -33 -122 l-26 -59 -39 7 c-22 4 -47 3
-56 -2 -13 -8 -10 -17 20 -67 l35 -58 -19 -27 c-23 -32 -43 -133 -36 -176 6
-33 -25 -195 -50 -265 -18 -47 -14 -112 7 -138 7 -7 17 -48 24 -90 9 -59 9
-82 -1 -105 -24 -57 5 -101 98 -150 41 -21 54 -24 78 -15 17 6 33 8 36 4 4 -3
17 -36 30 -73 13 -38 32 -76 42 -86 17 -18 20 -18 50 -3 44 23 97 71 121 112
12 19 26 34 31 34 5 0 16 -17 24 -37 25 -60 139 -223 195 -281 59 -61 90 -120
68 -133 -7 -5 -18 -9 -24 -9 -17 0 -44 -74 -44 -118 0 -20 10 -60 22 -89 19
-46 20 -54 7 -73 -8 -12 -36 -29 -63 -38 -26 -10 -49 -21 -50 -27 0 -5 25 -15
57 -23 l57 -14 0 -44 c0 -24 7 -59 16 -78 25 -51 13 -77 -47 -103 -28 -12 -48
-27 -45 -32 4 -5 27 -13 51 -17 36 -5 45 -10 45 -26 0 -10 6 -31 14 -46 7 -15
16 -45 19 -68 6 -35 3 -44 -18 -64 -32 -30 -32 -50 -1 -50 29 0 96 -71 96
-102 0 -12 9 -31 19 -42 24 -26 60 -210 50 -251 -5 -17 -2 -50 6 -83 8 -31 15
-86 15 -123 0 -50 5 -72 19 -90 22 -29 39 -128 48 -280 5 -97 4 -109 -11 -115
-13 -5 -32 8 -70 45 -28 28 -55 51 -60 51 -5 0 -23 15 -40 33 -17 18 -49 46
-71 62 -22 17 -44 36 -48 42 -4 7 -14 13 -22 13 -7 0 -20 6 -27 13 -7 6 -26
19 -43 27 -16 8 -36 19 -44 24 -13 10 -80 36 -93 36 -4 0 -5 -6 -2 -14 3 -8
-3 -16 -15 -19 -18 -4 -20 -12 -17 -93 3 -83 38 -226 67 -274 5 -8 12 -22 15
-30 3 -8 19 -44 36 -80 23 -48 32 -85 36 -138 4 -65 2 -76 -21 -111 -14 -21
-50 -63 -81 -94 -40 -40 -59 -68 -68 -101 -6 -24 -29 -69 -50 -98 -88 -122
-98 -141 -98 -185 0 -93 79 -268 142 -313 131 -95 468 -49 693 94 30 20 59 36
63 36 5 0 19 12 33 26 39 42 98 71 194 95 155 38 219 82 230 158 3 20 12 73
20 117 20 108 20 110 -16 254 -17 69 -31 134 -31 144 1 11 11 34 24 51 23 32
23 35 15 201 -9 187 -5 260 19 346 13 43 19 54 28 45 23 -26 56 -77 56 -88 0
-6 14 -31 30 -56 17 -24 30 -50 30 -57 0 -6 4 -16 9 -22 6 -5 24 -45 41 -89
17 -44 35 -88 41 -98 5 -10 20 -60 33 -110 17 -68 38 -116 78 -182 30 -49 60
-110 67 -135 27 -92 43 -129 68 -156 14 -16 37 -49 50 -75 61 -123 251 -198
434 -171 150 22 225 73 253 175 18 64 24 291 8 328 -35 86 -38 173 -11 416 11
100 11 135 0 201 -11 70 -11 85 2 111 17 34 17 217 -1 261 -13 33 -3 298 13
330 15 30 12 278 -3 307 -18 33 -26 159 -12 207 11 41 10 50 -20 128 -17 45
-38 104 -46 130 -8 27 -27 57 -44 72 -22 18 -38 48 -56 102 -29 89 -33 98 -89
184 -40 60 -73 159 -60 179 2 5 16 6 30 3 31 -6 65 23 102 86 25 43 27 53 23
187 -2 67 4 91 35 145 16 28 21 160 6 176 -11 11 -15 204 -5 289 3 33 2 76 -4
95 -9 34 -7 37 46 92 31 32 53 60 49 64 -3 4 -38 9 -77 12 -39 2 -73 8 -75 12
-14 23 -34 171 -29 212 6 41 3 51 -20 78 -26 32 -32 56 -18 75 4 6 38 26 76
45 38 20 71 40 73 46 4 12 -52 31 -121 40 -25 4 -50 12 -56 19 -13 15 -40 193
-40 260 0 28 4 65 9 82 8 27 5 39 -16 70 -13 21 -38 51 -54 66 -23 23 -27 32
-19 47 5 10 10 37 10 60 0 35 4 43 30 58 39 22 38 32 -2 32 -34 0 -66 15 -137
63 -48 32 -51 48 -12 76 25 18 38 20 130 14 55 -3 101 -3 101 0 0 3 -41 18
-90 33 -75 23 -91 31 -96 51 -6 23 -5 28 20 71 10 18 11 33 4 58 -8 32 -4 43
65 157 74 123 108 189 120 239 4 15 16 29 27 33 10 3 30 19 44 36 14 16 30 29
35 29 6 0 22 -24 35 -52 12 -29 53 -97 89 -150 37 -54 67 -104 67 -111 0 -23
96 -108 131 -117 68 -17 204 -79 220 -101 11 -15 21 -19 30 -13 8 5 39 10 69
10 93 3 224 21 261 37 21 8 78 60 140 126 100 108 138 160 195 266 15 28 34
61 44 75 10 14 23 44 30 67 8 25 29 57 53 79 22 21 46 52 54 69 8 16 25 45 38
64 16 22 25 48 25 71 0 35 8 46 110 144 68 65 117 120 127 143 8 21 28 56 43
78 29 41 67 192 56 221 -7 18 -50 18 -65 0 -6 -7 -23 -35 -37 -62 -31 -60 -63
-91 -75 -72 -5 7 -9 56 -10 108 0 52 -6 111 -13 130 -14 38 -5 36 -120 27 -26
-3 -44 -11 -56 -28 -18 -22 -19 -23 -38 -6 -22 20 -43 22 -60 5 -17 -17 -15
-45 8 -111 26 -73 26 -138 1 -161 -18 -16 -20 -14 -63 56 -35 59 -48 73 -68
73 -21 0 -25 -4 -23 -30 0 -16 13 -61 27 -100 14 -38 26 -89 26 -112 0 -38 -3
-44 -32 -59 -18 -9 -49 -32 -68 -50 -123 -118 -222 -181 -308 -198 -29 -5 -34
-2 -45 22 -6 15 -23 39 -37 54 -101 107 -107 135 -49 246 47 89 41 98 -37 56
l-53 -29 -24 23 c-17 16 -26 38 -30 69 -5 51 -30 90 -73 113 -19 11 -35 33
-49 69 -24 62 -67 94 -129 95 -34 1 -42 5 -44 23 -2 12 6 31 18 43 21 21 29
22 178 18 l157 -3 3 33 c5 50 -35 170 -74 223 -28 38 -33 52 -28 78 8 38 -6
40 -54 11 -28 -18 -37 -19 -50 -8 -29 22 -32 31 -32 91 0 35 -4 57 -11 57 -6
0 -28 -15 -49 -34 -36 -32 -40 -33 -77 -23 -31 8 -46 7 -75 -7 -20 -10 -48
-16 -63 -14 -23 2 -31 12 -47 56 -11 28 -24 52 -29 52 -5 0 -17 -27 -26 -61
-17 -63 -39 -84 -55 -56 -11 20 -40 22 -68 5 -32 -20 -70 10 -110 89 l-35 68
-3 -67 -3 -68 -53 0 c-62 0 -77 17 -51 57 18 27 16 158 -4 206 -6 16 -11 46
-11 67 0 79 -44 361 -67 435 -46 145 -127 291 -200 365 -19 19 -48 54 -64 78
-21 30 -36 42 -54 42 -13 0 -36 11 -51 25 -15 14 -39 25 -53 25 -14 0 -46 7
-71 16 -24 8 -53 12 -65 9 -11 -3 -62 -8 -112 -11 -61 -3 -108 -11 -139 -24
-25 -11 -54 -20 -63 -20 -34 0 -165 -95 -188 -137 -12 -21 -32 -48 -44 -59
-11 -10 -30 -36 -41 -57 -32 -64 -88 -248 -88 -291 0 -39 -29 -148 -42 -162
-4 -3 -29 -8 -57 -10 l-50 -4 -40 53 c-22 30 -48 62 -57 72 -18 17 -19 17 -25
-6 -4 -13 -7 -47 -8 -76 l-1 -52 -37 -6 c-21 -4 -49 -10 -63 -15 -62 -21 -79
-21 -90 0 -11 20 -11 20 -48 -5 -46 -31 -56 -31 -81 2 -20 24 -27 26 -86 24
-57 -2 -68 1 -89 22 -15 16 -27 42 -32 72 -5 36 -17 59 -51 97 -27 31 -42 56
-39 66 17 58 17 68 -6 89 -13 11 -33 24 -45 27 -14 5 -26 20 -32 42 -5 19 -31
58 -57 87 -26 28 -53 67 -61 85 -8 19 -28 48 -46 66 -18 17 -60 73 -94 123
-59 85 -113 143 -134 143 -14 0 -37 52 -44 103 -6 41 -4 53 18 85 14 20 37 68
52 106 24 60 27 78 22 135 -6 55 -11 69 -33 87 -22 18 -24 25 -15 42 13 24 72
72 89 72 6 0 20 17 31 38 10 20 27 53 37 73 28 54 185 244 217 262 21 12 34
14 47 7 28 -15 33 -12 26 16 -10 39 2 63 40 79 24 10 39 26 50 51 15 35 17 36
52 30 20 -3 43 -6 50 -6 16 0 66 -111 87 -190 23 -90 19 -129 -21 -208 -39
-79 -89 -128 -171 -169 -85 -41 -71 -51 86 -60 186 -10 348 39 509 154 100 71
269 245 340 350 63 94 104 171 96 184 -2 4 -38 -4 -79 -17 -86 -27 -178 -31
-229 -10 -46 19 -49 27 -26 79 30 68 35 126 15 186 -14 43 -25 57 -73 90 -89
62 -122 92 -122 111 0 26 -28 90 -56 127 -13 17 -24 35 -24 38 0 4 18 37 40
74 51 85 51 103 0 57 -22 -20 -45 -36 -50 -36 -6 0 -21 24 -34 54 -49 110
-149 186 -244 186 -32 0 -54 -5 -62 -15 -28 -34 -47 -18 -78 69 -61 167 -65
286 -17 485 27 110 30 141 16 141 -5 0 -34 -20 -65 -45z m270 -750 c26 -17 65
-92 57 -112 -4 -11 -14 -13 -36 -9 -16 3 -45 6 -63 6 -28 0 -38 6 -54 33 -49
78 16 132 96 82z m355 -636 c53 -18 60 -29 48 -72 -5 -20 -16 -37 -22 -37 -15
0 -82 68 -90 92 -10 30 9 35 64 17z m836 -7511 c29 -24 169 -197 188 -232 18
-33 18 -36 1 -73 -16 -37 -16 -41 2 -100 11 -34 31 -76 46 -93 36 -44 33 -62
-19 -99 -25 -18 -45 -35 -45 -38 0 -3 26 -3 58 -1 l57 3 25 -48 25 -49 -42
-37 c-24 -20 -43 -40 -43 -44 0 -4 21 -7 48 -7 45 0 49 -2 74 -42 15 -24 33
-51 40 -60 10 -14 9 -23 -6 -48 -21 -36 -17 -46 12 -31 36 19 52 14 52 -19 0
-27 3 -30 24 -24 21 5 25 1 32 -28 4 -18 6 -58 6 -89 -2 -84 34 -276 62 -335
36 -73 76 -232 70 -280 -4 -25 2 -60 15 -98 12 -33 21 -72 21 -88 0 -35 23
-92 54 -132 20 -27 23 -43 23 -126 1 -52 6 -123 13 -158 6 -34 8 -67 5 -73 -4
-5 -30 25 -58 68 -28 43 -76 103 -107 133 -57 57 -252 210 -268 210 -5 0 -17
9 -27 20 -10 11 -23 20 -30 20 -7 0 -20 9 -30 20 -10 11 -27 22 -39 26 -11 4
-32 14 -46 24 -14 9 -41 20 -62 24 -20 4 -39 14 -43 24 -4 9 -11 64 -15 122
-5 58 -13 130 -19 160 -6 30 -13 123 -15 205 -3 114 -9 165 -24 210 -11 33
-25 79 -31 101 -8 31 -18 45 -40 54 -34 14 -44 42 -25 67 9 13 13 51 14 130
l0 111 -35 29 -36 28 10 160 c6 88 15 238 21 333 5 95 12 178 16 184 8 13 70
4 91 -14z"/>
</g>
</svg>
